# xmcd CD database file
#
# Track frame offsets:
#	183
#	19958
#	50398
#	65663
#	83480
#	97465
#	118140
#	138095
#	158895
#	171760
#	187023
#
# Disc length: 2712 seconds
#
# Revision: 2
# Processed by: cddbd v1.4PL0 Copyright (c) Steve Scherf et al.
# Submitted via: CDex 1.40Beta9
#
DISCID=980a960b
DTITLE=Pops Staples - Father Father
DYEAR=1994
DGENRE=Blues
TTITLE0=Father Father
TTITLE1=Why Am I Treated So Bad
TTITLE2=Too Big For Your Britches
TTITLE3=Jesus Is Going To Make Up (My Dying Bed)
TTITLE4=The Downward Road
TTITLE5=People Get Ready
TTITLE6=Hope in a Hopeless World
TTITLE7=You Got To Serve Somebody
TTITLE8=Waiting For My Child
TTITLE9=Simple Man
TTITLE10=Glory Glory
EXTD=YEAR: 1994 ID3G: 0
EXTT0=
EXTT1=
EXTT2=
EXTT3=
EXTT4=
EXTT5=
EXTT6=
EXTT7=
EXTT8=
EXTT9=
EXTT10=
PLAYORDER=
